<?xml version="1.0" encoding="UTF-8"?>
<svg id="Layer_1" data-name="Layer 1" xmlns="http://www.w3.org/2000/svg" viewBox="0 0 960 960">
  <defs>
    <style>
      .cls-1, .cls-2, .cls-3 {
        stroke-width: 0px;
      }

      .cls-2 {
        fill: #fff;
      }

      .cls-3 {
        fill: #ff3e00;
      }
    </style>
  </defs>
  <path class="cls-3" d="M242.92,393.65c10.48,14.72,14.59,32.89,11.4,50.66-1.46,8.35-4.77,16.31-9.42,23.47,6.9,13,9.15,27.98,6.5,42.44-3.18,17.37-13.39,32.62-28.38,42.04l-54.77,34.88c-31.16,19.89-74.4,10.61-96.14-20.69-10.48-14.45-14.59-32.76-11.4-50.53,1.46-8.35,4.77-16.31,9.42-23.47-6.9-13-9.15-27.98-6.5-42.44,3.18-17.37,13.39-32.76,28.38-42.04l54.77-35.01c31.16-19.89,74.26-10.61,96.14,20.69"/>
  <path class="cls-2" d="M141.33,569.62c3.98-1.06,7.69-2.65,11.14-4.91l54.77-34.88c9.02-5.7,15.25-14.85,17.11-25.33,1.86-10.61-.53-21.62-6.9-30.5-10.34-14.99-29.04-21.88-46.68-17.37-3.98,1.06-7.69,2.65-11.14,4.91l-20.95,13.26c-1.06.66-2.12,1.19-3.32,1.46-5.3,1.33-11.01-.66-14.06-5.17-1.86-2.65-2.65-5.97-2.12-9.15.53-3.18,2.39-5.97,5.17-7.56l54.77-34.88c1.06-.66,2.12-1.19,3.32-1.46,5.3-1.33,11.01.66,14.06,5.17,1.72,2.39,2.52,5.3,2.25,8.09v1.99c-.13,0,1.86.66,1.86.66,7.69,2.39,14.99,5.97,21.48,10.74l2.78,2.12,1.06-3.18c.53-1.72.93-3.45,1.33-5.17,1.86-10.61-.53-21.62-6.9-30.5-10.34-14.99-29.04-21.88-46.68-17.37-3.98,1.06-7.69,2.65-11.14,4.91l-54.77,34.88c-9.02,5.7-15.25,14.85-17.11,25.33-1.86,10.61.53,21.62,6.9,30.5,10.34,14.99,29.04,21.88,46.68,17.37,3.98-1.06,7.69-2.65,11.14-4.91l20.95-13.39c1.06-.66,2.12-1.19,3.32-1.46,5.3-1.33,11.01.66,14.06,5.17,1.86,2.65,2.65,5.97,2.12,9.15s-2.39,5.97-5.17,7.69l-54.77,34.88c-1.06.66-2.12,1.19-3.32,1.46-5.3,1.33-11.01-.66-14.06-5.17-1.72-2.39-2.52-5.3-2.25-8.09v-1.99c.13,0-1.86-.66-1.86-.66-7.69-2.39-14.99-5.97-21.48-10.74l-2.78-2.12-1.06,3.18c-.53,1.72-.93,3.45-1.33,5.17-1.86,10.61.53,21.62,6.9,30.5,10.34,14.99,29.04,21.88,46.68,17.37"/>
  <path class="cls-1" d="M380.57,532.09c-8.22.27-16.31-2.12-23.07-6.5-6.37-4.24-11.14-10.61-13.53-17.9l14.06-5.17c1.99,4.51,5.17,8.35,9.15,11.14,4.11,2.78,9.02,4.24,13.92,4.11,4.77.27,9.42-1.19,13.26-3.98,3.32-2.78,5.17-7.16,4.91-11.54,0-1.99-.4-3.98-1.33-5.84-.8-1.59-1.86-3.05-3.05-4.38-1.59-1.46-3.32-2.65-5.3-3.58-2.39-1.19-4.38-2.12-5.97-2.78s-3.85-1.46-7.03-2.52c-3.85-1.33-6.76-2.39-8.62-3.18-2.65-1.06-5.17-2.39-7.56-3.85-2.65-1.33-5.04-3.18-7.03-5.3-1.72-2.12-3.18-4.38-4.24-7.03-4.11-9.95-1.33-21.35,6.76-28.25,5.7-5.04,13.53-7.56,23.47-7.56,8.22,0,14.99,1.86,20.29,5.44,5.17,3.45,8.89,8.62,10.74,14.45l-13.79,4.64c-1.33-3.05-3.71-5.7-6.63-7.43-3.58-1.99-7.56-2.92-11.67-2.78-3.98-.27-7.96.93-11.27,3.18-2.78,2.12-4.24,5.44-4.11,8.89,0,2.65,1.19,5.17,3.18,6.9,1.86,1.86,4.11,3.45,6.63,4.51,2.25.93,5.83,2.25,10.48,3.85,2.92,1.06,5.04,1.86,6.37,2.39s3.45,1.46,6.1,2.65c2.12.93,4.24,2.12,6.23,3.32,1.72,1.33,3.45,2.65,5.04,4.11,1.72,1.46,3.18,3.32,4.38,5.3,1.06,1.99,1.99,4.24,2.52,6.5.8,2.65,1.06,5.44,1.06,8.09,0,9.42-3.18,16.71-9.68,22.01-6.37,5.3-14.72,7.96-24.67,7.96v.13ZM472.6,530.37l-34.48-100.52h16.05l22.81,70.15c1.33,3.71,2.25,7.56,3.18,11.54.8-3.85,1.86-7.69,3.18-11.54l22.54-70.15h15.91l-34.35,100.52h-14.99.13ZM552.44,530.37v-100.52h62.33v14.06h-47.48v27.58h30.63v14.06h-30.63v30.77h50.53v14.06h-65.51.13ZM656.01,530.37v-100.52h14.99v86.2h49.2v14.32h-64.18ZM776.42,444.17v86.2h-14.99v-86.2h-28.51v-14.32h71.88v14.32h-28.51.13ZM835.7,530.37v-100.52h62.33v14.06h-47.48v27.58h30.63v14.06h-30.63v30.77h50.53v14.06h-65.51.13Z"/>
</svg>